<mxfile host="app.diagrams.net" modified="2020-12-18T09:40:37.443Z" agent="5.0 (Windows NT 10.0; Win64; x64) AppleWebKit/537.36 (KHTML, like Gecko) Chrome/87.0.4280.88 Safari/537.36" etag="jdVrzlKLJEUSWYbUJjR4" version="14.0.5" type="github">
  <diagram name="Page-1" id="e3a06f82-3646-2815-327d-82caf3d4e204">
    <mxGraphModel dx="1447" dy="803" grid="1" gridSize="10" guides="1" tooltips="1" connect="1" arrows="1" fold="1" page="1" pageScale="1.5" pageWidth="1169" pageHeight="826" background="none" math="0" shadow="0">
      <root>
        <mxCell id="0" style=";html=1;" />
        <mxCell id="1" style=";html=1;" parent="0" />
        <mxCell id="-C8kt0TjXY48vx6wbQoI-1" value="" style="rounded=0;whiteSpace=wrap;html=1;fillColor=#ffe6cc;strokeColor=#d79b00;" vertex="1" parent="1">
          <mxGeometry x="270" y="460" width="420" height="360" as="geometry" />
        </mxCell>
        <mxCell id="-C8kt0TjXY48vx6wbQoI-2" value="" style="rounded=0;whiteSpace=wrap;html=1;fillColor=#ffe6cc;strokeColor=#d79b00;" vertex="1" parent="1">
          <mxGeometry x="877" y="450" width="420" height="360" as="geometry" />
        </mxCell>
        <mxCell id="-C8kt0TjXY48vx6wbQoI-3" value="开发测试" style="whiteSpace=wrap;html=1;aspect=fixed;fillColor=#d5e8d4;strokeColor=#82b366;" vertex="1" parent="1">
          <mxGeometry x="290" y="490" width="160" height="160" as="geometry" />
        </mxCell>
        <mxCell id="-C8kt0TjXY48vx6wbQoI-4" value="生产" style="whiteSpace=wrap;html=1;aspect=fixed;fillColor=#dae8fc;strokeColor=#6c8ebf;" vertex="1" parent="1">
          <mxGeometry x="500" y="490" width="160" height="160" as="geometry" />
        </mxCell>
        <mxCell id="-C8kt0TjXY48vx6wbQoI-5" value="开发测试" style="whiteSpace=wrap;html=1;aspect=fixed;fillColor=#d5e8d4;strokeColor=#82b366;" vertex="1" parent="1">
          <mxGeometry x="902" y="480" width="160" height="160" as="geometry" />
        </mxCell>
        <mxCell id="-C8kt0TjXY48vx6wbQoI-6" value="生产" style="whiteSpace=wrap;html=1;aspect=fixed;fillColor=#dae8fc;strokeColor=#6c8ebf;" vertex="1" parent="1">
          <mxGeometry x="1112" y="480" width="160" height="160" as="geometry" />
        </mxCell>
      </root>
    </mxGraphModel>
  </diagram>
</mxfile>
